<svg id="Capa_1" data-name="Capa 1" xmlns="http://www.w3.org/2000/svg" viewBox="0 0 796 786.17"><defs><style>.cls-1,.cls-3{fill:none;stroke:#808184;stroke-linejoin:round;stroke-width:20px;}.cls-2{fill:#fff;fill-opacity:0.01;}.cls-3{stroke-linecap:round;}</style></defs><path class="cls-1" d="M67,359.51c20-113.28,99.93-206,205.77-244.23l-5,8.61A25.08,25.08,0,1,0,311.25,149l34.57-59.86a25.06,25.06,0,0,0-9.17-34.26L276.77,20.28a25.08,25.08,0,1,0-25.08,43.43l6.24,3.61C134.36,111.08,40.86,218.92,17.61,350.8a368.27,368.27,0,0,0,16.57,190A25.08,25.08,0,0,0,81.3,523.57,318,318,0,0,1,67,359.51Z" transform="translate(-2 -6.91)"/><path class="cls-1" d="M659.55,616.26a25.07,25.07,0,0,0-35.34,3.06c-73,86.79-187.54,128.5-299.07,108.82a318.75,318.75,0,0,1-146.69-67.53h8.07a25.08,25.08,0,0,0,0-50.16H119.75A25,25,0,0,0,92.46,632.9V633c-.07.72-.11,1.44-.11,2.17,0,.12,0,.24,0,.37l0,69.12a25.08,25.08,0,0,0,25.07,25.09h0a25.08,25.08,0,0,0,25.08-25.07v-8.73a368.49,368.49,0,0,0,520.16-44.34A25.07,25.07,0,0,0,659.55,616.26Z" transform="translate(-2 -6.91)"/><path class="cls-1" d="M784.64,488.45a25.07,25.07,0,0,0-34.26-9.18L742.13,484c.34-1.77.74-3.53,1-5.31A368.36,368.36,0,0,0,444.36,52a25.09,25.09,0,0,0-8.7,49.41A318.18,318.18,0,0,1,693.87,469.5l-3.67-6.36a25.08,25.08,0,1,0-43.45,25.07l34.57,59.89a25.08,25.08,0,0,0,34.26,9.18l59.88-34.57A25.09,25.09,0,0,0,784.64,488.45Z" transform="translate(-2 -6.91)"/><g id="页面-1"><g id="导航图标"><g id="编组"><polygon id="路径" class="cls-2" points="592 198.59 204 198.59 204 586.59 592 586.59 592 198.59"/><polygon id="路径-2" data-name="路径" class="cls-1" points="559.66 311.75 398 230.92 236.33 311.75 236.33 473.42 398 554.25 559.66 473.42 559.66 311.75"/><line id="路径-3" data-name="路径" class="cls-3" x1="236.33" y1="311.75" x2="398" y2="392.59"/><line id="路径-4" data-name="路径" class="cls-3" x1="398" y1="554.25" x2="398" y2="392.59"/><line id="路径-5" data-name="路径" class="cls-3" x1="559.67" y1="311.75" x2="398" y2="392.59"/><line id="路径-6" data-name="路径" class="cls-3" x1="478.83" y1="271.34" x2="317.17" y2="352.17"/></g></g></g></svg>