<svg id="team" xmlns="http://www.w3.org/2000/svg" viewBox="0 0 800 800"><defs><style>.cls-1,.cls-2{fill:none;}.cls-2{stroke:#808184;stroke-miterlimit:333.33;stroke-width:50px;}</style></defs><g id="_24x24_user--dark" data-name=" 24x24 user--dark"><rect id="Rectangle" class="cls-1" width="800" height="800"/></g><path id="Combined_Shape" data-name="Combined Shape" class="cls-2" d="M200,670.2c0-126.1,150-100.87,150-151.3a74.53,74.53,0,0,0-13.67-50.43A116.69,116.69,0,0,1,300,380,107.4,107.4,0,0,1,400,266.67,107.4,107.4,0,0,1,500,380a114.68,114.68,0,0,1-36.83,88.43A77.77,77.77,0,0,0,450,518.9c0,50.43,150,25.23,150,151.33,0,0-39.83,29.8-200,29.8S200,670.2,200,670.2Z"/><path id="Combined_Shape-2" data-name="Combined Shape-2" class="cls-2" d="M182.87,532.23c-19-.86-35.7-2.16-50.4-3.8a227.81,227.81,0,0,1-99.14-24.9c0-126.1,150-100.86,150-151.3a74.53,74.53,0,0,0-13.66-50.43,116.69,116.69,0,0,1-36.34-88.47A107.4,107.4,0,0,1,233.33,100a107.39,107.39,0,0,1,100,113.33"/><path id="Combined_Shape-3" data-name="Combined Shape-3" class="cls-2" d="M617.13,532.23c19-.86,35.7-2.16,50.4-3.8a227.81,227.81,0,0,0,99.14-24.9c0-126.1-150-100.86-150-151.3a74.53,74.53,0,0,1,13.66-50.43,116.69,116.69,0,0,0,36.34-88.47A107.4,107.4,0,0,0,566.67,100a107.39,107.39,0,0,0-100,113.33"/></svg>