<svg xmlns="http://www.w3.org/2000/svg" viewBox="0 0 385.16 504.17"><defs><style>.cls-1{font-size:73px;font-family:CenturyGothic-Bold, Century Gothic;font-weight:700;}.cls-1,.cls-2{fill:#7a94cc;}</style></defs><g id="Layer_8" data-name="Layer 8"><text class="cls-1" transform="translate(60.87 488.1)">Ahimsa</text></g><g id="Branches"><g id="Trunk"><path class="cls-2" d="M670.91,530.23,659.17,543h55.15L703.6,530.21s-13.54-255.83-17-320.17h0L670.91,530.23" transform="translate(-491.58 -130.37)"/><path id="down-left" class="cls-2" d="M567.66,339s67.23-10.42,113.79,46.43v11S649.36,341.58,567.66,339Z" transform="translate(-491.58 -130.37)"/><path id="down-right" class="cls-2" d="M803.85,337.57S736.62,327.15,690.06,384v11S722.15,340.16,803.85,337.57Z" transform="translate(-491.58 -130.37)"/><g id="upper-right"><path class="cls-2" d="M798.4,253.43s-42.94-.48-53,6.9l-9.84,15.08S757.21,254.2,798.4,253.43Z" transform="translate(-491.58 -130.37)"/><path class="cls-2" d="M751.42,215.59s-11.41,54-24,59.82l15.94-10.85S751.71,235.84,751.42,215.59Z" transform="translate(-491.58 -130.37)"/><path class="cls-2" d="M768.57,238.64s-75.92,79.29-86.21,115.47V329.77S721.9,273.63,768.57,238.64Z" transform="translate(-491.58 -130.37)"/></g><g id="up-left"><path class="cls-2" d="M572.11,250.64s43.64-.49,53.87,6.89l10,15.08S614,251.4,572.11,250.64Z" transform="translate(-491.58 -130.37)"/><g id="Layer_5" data-name="Layer 5"><path class="cls-2" d="M619.87,212.8s11.59,53.95,24.42,59.81l-16.21-10.85S619.57,233,619.87,212.8Z" transform="translate(-491.58 -130.37)"/></g><path class="cls-2" d="M602.43,235.84s77.17,79.29,87.63,115.47V327S649.86,270.83,602.43,235.84Z" transform="translate(-491.58 -130.37)"/></g><g id="Leaf"><path class="cls-2" d="M672.93,227.27c0,20.22-20.43,36.62-20.43,36.62s-20.43-16.4-20.43-36.62,20.43-36.63,20.43-36.63S672.93,207,672.93,227.27Z" transform="translate(-491.58 -130.37)"/><path class="cls-2" d="M738.7,227.27c0,20.22-20.42,36.62-20.42,36.62s-20.43-16.4-20.43-36.62,20.43-36.63,20.43-36.63S738.7,207,738.7,227.27Z" transform="translate(-491.58 -130.37)"/><path class="cls-2" d="M707,167c0,20.23-20.42,36.63-20.42,36.63s-20.43-16.4-20.43-36.63,20.43-36.63,20.43-36.63S707,146.77,707,167Z" transform="translate(-491.58 -130.37)"/><path class="cls-2" d="M808.08,218.22C796.18,234.59,770,235.84,770,235.84s-6.88-25.27,5-41.64,38.06-17.62,38.06-17.62S820,201.86,808.08,218.22Z" transform="translate(-491.58 -130.37)"/><path class="cls-2" d="M592.59,192c13.48,15.07,9.19,40.91,9.19,40.91s-26.15,1.4-39.64-13.67-9.2-40.92-9.2-40.92S579.1,176.93,592.59,192Z" transform="translate(-491.58 -130.37)"/><path class="cls-2" d="M809.61,315.24c-11.89,16.37-38.06,17.62-38.06,17.62s-6.88-25.27,5-41.64,38.06-17.61,38.06-17.61S821.5,298.88,809.61,315.24Z" transform="translate(-491.58 -130.37)"/><path class="cls-2" d="M757.18,322.2c-10.94,17-37,19.75-37,19.75s-8.31-24.84,2.64-41.85,37-19.75,37-19.75S768.13,305.19,757.18,322.2Z" transform="translate(-491.58 -130.37)"/><path class="cls-2" d="M782.33,391.37C766.19,379.18,765.41,353,765.41,353s25.4-6.42,41.54,5.77,16.92,38.38,16.92,38.38S798.47,403.56,782.33,391.37Z" transform="translate(-491.58 -130.37)"/><path class="cls-2" d="M730.16,410.8c-10.86-17.07-2.42-41.87-2.42-41.87s26,2.87,36.89,19.94,2.43,41.87,2.43,41.87S741,427.87,730.16,410.8Z" transform="translate(-491.58 -130.37)"/><path class="cls-2" d="M842.65,358.36c-18.27-1-32.07-20.27-32.07-20.27s15.82-17.63,34.09-16.63,32.07,20.27,32.07,20.27S860.92,359.36,842.65,358.36Z" transform="translate(-491.58 -130.37)"/><path class="cls-2" d="M524.27,322.1c18.29-.44,33.55,17.69,33.55,17.69S543.43,358.61,525.14,359s-33.56-17.69-33.56-17.69S506,322.53,524.27,322.1Z" transform="translate(-491.58 -130.37)"/><path class="cls-2" d="M651.54,303.29c6.35,19.21-7.89,41.19-7.89,41.19s-24.54-9.15-30.9-28.36,7.9-41.19,7.9-41.19S645.19,284.09,651.54,303.29Z" transform="translate(-491.58 -130.37)"/><path class="cls-2" d="M595.4,291.91c11.16,16.88,3.15,41.82,3.15,41.82s-26.08-2.42-37.23-19.3-3.15-41.82-3.15-41.82S584.25,275,595.4,291.91Z" transform="translate(-491.58 -130.37)"/><path class="cls-2" d="M557.57,354.89c15.89-12.53,41.41-6.64,41.41-6.64s-.23,26.19-16.11,38.72-41.41,6.64-41.41,6.64S541.69,367.42,557.57,354.89Z" transform="translate(-491.58 -130.37)"/><path class="cls-2" d="M599.36,380.83c12.73-15.73,38.92-15.62,38.92-15.62s5.56,25.59-7.16,41.32-38.92,15.62-38.92,15.62S586.64,396.55,599.36,380.83Z" transform="translate(-491.58 -130.37)"/></g></g></g></svg>